<?xml version="1.0" standalone="no"?>
<!DOCTYPE svg PUBLIC "-//W3C//DTD SVG 20010904//EN"
 "http://www.w3.org/TR/2001/REC-SVG-20010904/DTD/svg10.dtd">
<svg version="1.0" xmlns="http://www.w3.org/2000/svg"
 width="430.000000pt" height="430.000000pt" viewBox="0 0 430.000000 430.000000"
 preserveAspectRatio="xMidYMid meet">
<metadata>
Created by potrace 1.14, written by Peter Selinger 2001-2017
</metadata>
<g transform="translate(0.000000,430.000000) scale(0.100000,-0.100000)"
fill="#000000" stroke="none">
<path d="M0 2150 l0 -2150 2150 0 2150 0 0 2150 0 2150 -2150 0 -2150 0 0
-2150z m2385 1689 c354 -48 688 -213 940 -464 149 -148 235 -265 320 -435 124
-247 177 -471 177 -750 0 -520 -226 -983 -640 -1313 -202 -162 -477 -284 -732
-327 -340 -57 -717 -7 -993 132 l-79 39 -431 -96 c-238 -53 -437 -98 -443
-100 -8 -2 -9 7 -3 33 4 20 48 218 98 438 l90 402 -44 98 c-100 225 -148 450
-147 699 1 271 54 501 172 735 87 174 171 289 313 434 217 220 473 365 775
440 213 53 409 64 627 35z"/>
<path d="M1726 2968 c-3 -29 -8 -89 -11 -133 -3 -44 -8 -95 -11 -112 l-5 -33
-184 0 -185 0 0 -165 0 -165 170 0 c149 0 170 -2 170 -16 0 -26 -20 -256 -26
-291 l-5 -33 -154 0 -155 0 0 -165 0 -165 141 0 142 0 -7 -82 c-3 -46 -9 -120
-12 -165 l-7 -83 167 0 c91 0 166 3 166 8 0 4 7 72 15 152 8 80 15 151 15 158
0 9 40 12 166 12 l167 0 -6 -67 c-4 -38 -9 -112 -13 -165 l-7 -98 165 0 166 0
6 53 c3 28 8 88 11 132 3 44 8 95 11 113 l5 32 184 0 185 0 0 165 0 165 -170
0 c-168 0 -170 0 -170 22 0 30 19 245 26 286 l5 32 154 0 155 0 0 165 0 165
-141 0 -142 0 7 83 c3 45 9 119 12 165 l7 82 -167 0 c-91 0 -166 -3 -166 -7 0
-5 -7 -73 -15 -153 -8 -80 -15 -151 -15 -157 0 -10 -40 -13 -166 -13 l-167 0
6 68 c4 37 9 111 13 165 l7 97 -165 0 -166 0 -6 -52z m614 -624 c0 -26 -20
-256 -26 -291 l-5 -33 -164 0 c-163 0 -165 0 -165 22 0 30 19 245 26 286 l5
32 164 0 c144 0 165 -2 165 -16z"/>
</g>
</svg>
